<?xml version="1.0" encoding="utf-8"?>
<!-- Generator: Adobe Illustrator 17.0.0, SVG Export Plug-In . SVG Version: 6.00 Build 0)  -->
<!DOCTYPE svg PUBLIC "-//W3C//DTD SVG 1.1//EN" "http://www.w3.org/Graphics/SVG/1.1/DTD/svg11.dtd">
<svg version="1.1" id="Capa_1" xmlns="http://www.w3.org/2000/svg" xmlns:xlink="http://www.w3.org/1999/xlink" x="0px" y="0px"
	 width="134.725px" height="131px" viewBox="0 0 134.725 131" enable-background="new 0 0 134.725 131" xml:space="preserve">
<rect fill="#2D3E50" width="134.725" height="131"/>
<path fill="#FFFFFF" d="M96,37.513c-16.092-16.269-42.183-16.269-58.275,0s-16.092,42.645,0,58.914
	c16.092,16.269,42.183,16.269,58.275,0C112.093,80.158,112.093,53.781,96,37.513z M87.425,77.015c0.88,0.89,0.88,2.333,0,3.223
	l-7.438,7.519c-0.88,0.89-2.307,0.89-3.188,0l-9.936-10.045l-9.937,10.045c-0.88,0.89-2.307,0.89-3.188,0l-7.438-7.519
	c-0.88-0.89-0.88-2.333,0-3.222l9.937-10.046l-9.937-10.045c-0.88-0.89-0.88-2.333,0-3.223l7.438-7.519
	c0.88-0.89,2.307-0.89,3.187,0l9.937,10.045l9.936-10.045c0.88-0.89,2.307-0.89,3.188,0l7.438,7.519c0.88,0.89,0.88,2.333,0,3.223
	L77.488,66.97L87.425,77.015z"/>
</svg>
