<?xml version="1.0" encoding="utf-8"?>
<!-- Generator: Adobe Illustrator 17.0.0, SVG Export Plug-In . SVG Version: 6.00 Build 0)  -->
<!DOCTYPE svg PUBLIC "-//W3C//DTD SVG 1.1//EN" "http://www.w3.org/Graphics/SVG/1.1/DTD/svg11.dtd">
<svg version="1.1" id="Capa_1" xmlns="http://www.w3.org/2000/svg" xmlns:xlink="http://www.w3.org/1999/xlink" x="0px" y="0px"
	 width="75px" height="75px" viewBox="0 0 75 75" enable-background="new 0 0 75 75" xml:space="preserve">
<polygon fill="#FFFFFF" stroke="#000000" stroke-width="0.216" stroke-miterlimit="22.9256" points="34.506,28.904 42.945,28.904 
	42.945,29.754 34.506,29.754 "/>
<path fill="#FFFFFF" d="M37.19,34.779h3.076l-0.002,0.232c-0.121,0.102-0.195,0.21-0.222,0.323c-0.029,0.138-0.113,0.24-0.247,0.308
	H37.66c-0.11-0.054-0.191-0.132-0.228-0.247c-0.035-0.138-0.117-0.266-0.245-0.383L37.19,34.779L37.19,34.779z"/>
<g>
	<g>
		<polygon fill="#FFFFFF" points="37.66,35.739 39.789,35.744 39.24,61.15 38.294,61.137 		"/>
		<g>
			<path d="M33.66,28.106h10.13v1.309l0.805,0.785c-0.062,2.49-1.209,4.169-3.502,4.989v0.275c-0.197-0.036-0.36,0.114-0.489,0.451
				c-0.058,0.138-0.195,0.246-0.366,0.34l0.001,0.579c1.886-0.844,3.868-1.12,5.936-0.886c1.236,0.084,2.686,0.292,4.263,0.574
				l2.666,0.41c-0.806-0.023-1.712-0.08-2.836-0.213c-3.046-0.335-5.277-0.439-6.233-0.18c-1.757,0.284-3.302,0.941-4.672,1.908
				l0.035-2.63H38.04l0.064,2.626c-1.199-0.803-2.42-1.375-3.664-1.716c-1.024-0.255-2.017-0.371-2.973-0.319
				c-0.923,0.049-1.82,0.082-2.819,0.18l-4.416,0.377c1.192-0.175,2.498-0.383,4.076-0.623c1.431-0.32,3.029-0.519,4.891-0.443
				c1.205-0.018,2.541,0.299,4.042,0.919l-0.029-0.562c-0.166-0.058-0.297-0.183-0.395-0.373c-0.054-0.255-0.179-0.428-0.46-0.419
				V35.19c-2.247-0.783-3.559-2.727-3.502-4.989l0.805-0.785V28.106L33.66,28.106z"/>
			<g>
				<path fill="#35B297" stroke="#E30613" stroke-width="0.216" stroke-miterlimit="22.9256" d="M34.478,27.755
					c-0.604-1.904-0.358-3.684,1.483-5.233c0.752-0.758,0.997-1.468,0.501-2.107c2.064,0.461,2.568,2.588,1.474,4.206
					c-0.97,1.184-1.475,2.234-1.467,3.134H34.478L34.478,27.755z"/>
				<g>
					<path fill="none" stroke="#FFFFFF" stroke-width="0.216" stroke-miterlimit="22.9256" d="M38.763,3C58.773,3,75,18.673,75,38
						S58.773,73,38.763,73S2.526,57.327,2.526,38S18.753,3,38.763,3L38.763,3z"/>
					<path fill="#35B297" stroke="#E30613" stroke-width="0.216" stroke-miterlimit="22.9256" d="M10.303,42.552
						c-0.454-1.422-1.38-2.423-2.521-3.232c-0.588,2.407-0.188,4.391,1.971,5.623v0.489c-0.546-0.453-1.065-0.778-1.559-0.976
						c-0.295,2.708,0.884,4.385,3.072,5.358v0.398c-0.468-0.362-1.018-0.539-1.65-0.531c0.234,2.375,1.313,4.049,3.897,4.472v0.487
						c-0.523-0.247-1.073-0.335-1.65-0.266c0.452,2.224,1.903,3.634,4.814,3.852l0.046,0.399c-0.566-0.201-1.131-0.144-1.696,0.089
						c0.959,2.146,2.563,3.374,5.318,2.967l-0.046,0.487c-0.552-0.129-1.075-0.057-1.578,0.151c1.27,1.818,2.94,3.049,6.033,2.18
						l0.143,0.505c-0.642-0.009-1.236,0.144-1.781,0.459c2.044,1.801,4.154,2.217,6.342,0.964l1.33,0.551
						c0.535-2.497-1.36-3.94-4.133-5.001c-0.04,1.227,0.175,2.266,0.95,2.891h-1.449c0.262-2.698-1.072-4.269-3.302-5.208
						c-0.146,0.979-0.097,1.958,0.38,2.937l-1.544-0.413c0.526-2.279-0.063-4.167-2.28-5.483c-0.327,0.971-0.371,1.963,0,2.982
						l-1.425-0.699c0.895-1.971,0.452-4.015-1.33-5.88c-0.663,1.118-0.949,1.912-0.737,2.925l-1.053-0.865
						c1.077-1.981,1.11-4.026-0.381-6.166c-0.769,0.889-1.228,1.864-1.232,2.964l-0.963-1.06c1.581-2.027,1.85-4.028,0.808-6.002
						c-0.812,0.585-1.36,1.425-1.644,2.52l-0.913-1.21c1.714-1.264,2.593-3.077,1.983-5.872
						C11.658,40.907,10.902,41.624,10.303,42.552L10.303,42.552z"/>
					<path fill="#35B297" stroke="#E30613" stroke-width="0.216" stroke-miterlimit="22.9256" d="M67.223,42.552
						c0.454-1.422,1.38-2.423,2.521-3.232c0.588,2.407,0.188,4.391-1.971,5.623v0.489c0.546-0.453,1.065-0.778,1.559-0.976
						c0.295,2.708-0.884,4.385-3.072,5.358v0.398c0.468-0.362,1.018-0.539,1.65-0.531c-0.234,2.375-1.313,4.049-3.897,4.472v0.487
						c0.523-0.247,1.073-0.335,1.65-0.266c-0.452,2.224-1.903,3.634-4.814,3.852l-0.046,0.399c0.566-0.201,1.131-0.144,1.696,0.089
						c-0.959,2.146-2.563,3.374-5.318,2.967l0.046,0.487c0.552-0.129,1.075-0.057,1.578,0.151c-1.27,1.818-2.94,3.049-6.033,2.18
						l-0.142,0.505c0.642-0.009,1.236,0.144,1.781,0.459c-2.044,1.801-4.154,2.217-6.342,0.964l-1.33,0.551
						c-0.535-2.497,1.36-3.94,4.133-5.001c0.04,1.227-0.175,2.266-0.95,2.891h1.449c-0.262-2.698,1.072-4.269,3.302-5.208
						c0.146,0.979,0.097,1.958-0.38,2.937l1.544-0.413c-0.526-2.279,0.063-4.167,2.28-5.483c0.327,0.971,0.371,1.963,0,2.982
						l1.425-0.699c-0.895-1.971-0.452-4.015,1.33-5.88c0.662,1.118,0.949,1.912,0.737,2.925l1.053-0.865
						c-1.077-1.981-1.111-4.026,0.381-6.166c0.769,0.889,1.228,1.864,1.232,2.964l0.963-1.06c-1.581-2.027-1.85-4.028-0.808-6.002
						c0.812,0.585,1.36,1.425,1.644,2.52l0.913-1.21c-1.714-1.264-2.593-3.077-1.983-5.872
						C65.868,40.907,66.624,41.624,67.223,42.552L67.223,42.552z"/>
					<path fill="#FFFFFF" d="M25.825,36.8l-3.654,0.234l-3.534,3.371l-0.969,11.924c7.725,1.966,15.554-2.847,20.332,1.684
						l-0.106-16.689C34.225,35.966,31.617,35.869,25.825,36.8L25.825,36.8z"/>
					<path d="M34.415,68.673h-0.542v-3.155h-0.646v-0.423h1.188V68.673L34.415,68.673z M37.852,66.324
						c0-0.223-0.075-0.411-0.224-0.563c-0.149-0.153-0.33-0.229-0.542-0.229c-0.231,0-0.417,0.07-0.558,0.209
						c-0.142,0.139-0.213,0.325-0.213,0.555c0,0.223,0.071,0.405,0.213,0.546c0.141,0.141,0.322,0.211,0.543,0.211
						c0.217,0,0.402-0.071,0.554-0.214C37.776,66.697,37.852,66.525,37.852,66.324L37.852,66.324z M36.997,68.674l-0.601-0.001
						l0.84-1.214c-0.048,0.018-0.095,0.033-0.145,0.044c-0.049,0.012-0.095,0.018-0.14,0.018c-0.324,0-0.6-0.118-0.827-0.354
						s-0.341-0.518-0.341-0.848c0-0.112,0.016-0.223,0.047-0.335c0.031-0.112,0.08-0.224,0.147-0.335
						c0.112-0.198,0.263-0.351,0.455-0.46s0.406-0.164,0.644-0.164c0.176,0,0.34,0.03,0.492,0.091
						c0.152,0.061,0.287,0.151,0.406,0.269c0.118,0.119,0.213,0.255,0.282,0.407c0.034,0.077,0.059,0.152,0.076,0.224
						c0.017,0.072,0.025,0.148,0.025,0.228c0,0.305-0.178,0.715-0.534,1.232l-0.013,0.019L36.997,68.674L36.997,68.674z
						 M41.22,68.673h-2.343v-0.499l1.297-1.202l0.02-0.019c0.341-0.318,0.512-0.581,0.512-0.791c0-0.18-0.063-0.333-0.191-0.457
						c-0.127-0.125-0.287-0.187-0.481-0.187c-0.205,0-0.366,0.063-0.481,0.19c-0.056,0.064-0.098,0.138-0.127,0.225
						c-0.029,0.086-0.043,0.186-0.043,0.301v0.039h-0.506v-0.01c0-0.372,0.109-0.67,0.329-0.896c0.22-0.226,0.511-0.338,0.874-0.338
						c0.321,0,0.592,0.108,0.816,0.325c0.224,0.217,0.336,0.48,0.336,0.788c0,0.175-0.042,0.34-0.125,0.494
						c-0.083,0.154-0.22,0.318-0.412,0.491l-1.156,1.047h1.679v0.499H41.22z M41.768,67.415v-1.057c0-0.226,0.017-0.399,0.052-0.517
						s0.092-0.228,0.172-0.328c0.12-0.155,0.27-0.275,0.45-0.359c0.18-0.083,0.378-0.125,0.593-0.125
						c0.222,0,0.425,0.044,0.608,0.132c0.183,0.089,0.337,0.217,0.46,0.386c0.067,0.092,0.115,0.201,0.148,0.33
						c0.016,0.062,0.028,0.132,0.036,0.207c0.009,0.076,0.013,0.161,0.013,0.255v1.09c0,0.197-0.016,0.359-0.047,0.486
						c-0.031,0.127-0.082,0.237-0.154,0.33c-0.119,0.159-0.271,0.282-0.456,0.369c-0.185,0.086-0.387,0.13-0.608,0.13
						c-0.217,0-0.413-0.041-0.589-0.122c-0.175-0.082-0.331-0.203-0.465-0.361c-0.073-0.091-0.127-0.202-0.161-0.337
						C41.785,67.789,41.768,67.62,41.768,67.415L41.768,67.415z M42.32,67.506v0.054c0,0.117,0.007,0.203,0.02,0.257
						c0.014,0.053,0.036,0.102,0.069,0.146c0.061,0.087,0.146,0.158,0.256,0.211c0.056,0.024,0.114,0.044,0.172,0.057
						c0.058,0.013,0.121,0.019,0.187,0.019c0.239,0,0.419-0.064,0.538-0.19c0.119-0.127,0.179-0.318,0.179-0.574v-1.199
						c0-0.153-0.006-0.258-0.019-0.314c-0.013-0.055-0.036-0.108-0.07-0.157c-0.062-0.092-0.147-0.163-0.26-0.215
						c-0.112-0.051-0.234-0.077-0.364-0.077c-0.125,0-0.242,0.023-0.351,0.071s-0.195,0.117-0.26,0.206
						c-0.036,0.048-0.061,0.106-0.076,0.174s-0.023,0.17-0.023,0.308v1.223H42.32z"/>
					<path fill="#FFFFFF" stroke="#FFFFFF" stroke-width="0.216" stroke-miterlimit="22.9256" d="M35.39,26.086
						c0.001-0.706,0.248-1.413,1.008-2.024c0.448-0.411,0.758-0.898,0.864-1.498c0.15,0.473-0.127,1.076-0.759,1.785
						C35.851,24.915,35.528,25.496,35.39,26.086L35.39,26.086z"/>
					<path fill="#35B297" stroke="#E30613" stroke-width="0.216" stroke-miterlimit="22.9256" d="M36.941,27.755
						c0.024-0.795,0.396-1.686,1.276-2.718c0.728-1.053,0.941-2.198,0.472-3.464c-0.19-0.241-0.321-0.489-0.512-0.723
						c-0.827-1.018-1.048-2.058-0.695-2.967c0.374-0.661,0.857-1.038,1.451-1.132c-0.964,0.903-0.781,1.891,0.187,2.936
						c0.059-0.587,0.338-0.879,0.837-0.876c-0.548,0.525-0.281,1.257,0.663,2.159c1.067,0.99,1.418,2.574,0.744,3.616
						c-0.231,0.488-0.767,1.036-1.609,1.642c-0.621,0.453-1.073,0.955-1.278,1.526L36.941,27.755L36.941,27.755z"/>
					<path fill="#FFFFFF" d="M51.701,36.8l3.654,0.234l3.534,3.371l0.969,11.924c-7.725,1.966-15.554-2.847-20.332,1.684
						l0.106-16.689C43.301,35.966,45.908,35.869,51.701,36.8L51.701,36.8z"/>
					<path fill="#35B297" stroke="#E30613" stroke-width="0.216" stroke-miterlimit="22.9256" d="M38.971,27.755
						c0.289-0.521,0.912-1.097,1.763-1.712c1.143-0.918,1.648-2.052,1.397-3.442c1.555,1.211,1.774,3.863,0.948,5.155h-1.795
						c0.985-0.961,1.343-1.69,1.179-2.226c-0.066,0.55-0.477,1.157-1.089,1.744c-0.155,0.149-0.233,0.323-0.403,0.483h-2V27.755z"/>
					<polygon fill="#FFFFFF" stroke="#000000" stroke-width="0.216" stroke-miterlimit="22.9256" points="33.701,30.525 
						34.34,29.926 43.154,29.926 43.751,30.525 					"/>
					<path fill="#FFFFFF" d="M33.721,30.691h9.998c-0.069,1.728-1.382,3.346-3.455,3.919h-3.076
						C35.13,33.99,33.848,32.585,33.721,30.691L33.721,30.691z"/>
					<path d="M22.204,36.966l-0.907,0.83l-0.935,12.2c5.11,0.791,12.656-2.851,17.217,0.665v0.958
						c-4.813-3.771-11.289,0.029-18.074-0.92l0.924-12.063l-0.859,0.827l-0.92,11.94c8.864,1.137,14.118-2.866,18.968,1.138
						l-0.038,0.958c-5.36-4.594-9.486,0.126-19.787-1.393l0.904-11.798l-0.867,0.837l-0.894,11.664
						c12.832,1.559,15.094-3.283,20.681,1.648c0.339,1.905-0.43,7.272,1.109,7.097l0.046-0.841
						c-0.333-0.094-0.278-7.13-0.416-10.695c-7.304-3.641-11.264-0.292-17.077-0.751L22.204,36.966L22.204,36.966z"/>
					<path d="M55.322,36.966l0.907,0.83l0.935,12.2c-5.11,0.791-12.656-2.851-17.217,0.665v0.958
						c4.813-3.771,11.289,0.029,18.074-0.92l-0.924-12.063l0.859,0.827l0.921,11.939c-8.864,1.137-14.118-2.866-18.968,1.138
						l0.038,0.958c5.36-4.594,9.486,0.126,19.787-1.393L58.83,40.307l0.867,0.837l0.894,11.664
						c-12.832,1.559-15.094-3.283-20.681,1.648c-0.494,1.918,0.596,7.243-1.181,7.097l0.046-0.841
						c0.333-0.094,0.258-7.13,0.397-10.695c7.304-3.641,11.264-0.292,17.077-0.751L55.322,36.966L55.322,36.966z"/>
				</g>
			</g>
		</g>
	</g>
	<path fill="none" stroke="#000000" stroke-width="2.2677" stroke-miterlimit="22.9256" d="M37.831,37.403l0.289,13.368
		 M39.632,37.325l-0.235,13.261"/>
</g>
</svg>
